<?xml version="1.0" encoding="utf-8"?>
<!-- Generator: Adobe Illustrator 27.5.0, SVG Export Plug-In . SVG Version: 6.00 Build 0)  -->
<svg version="1.1" xmlns="http://www.w3.org/2000/svg" xmlns:xlink="http://www.w3.org/1999/xlink" x="0px" y="0px"
	 viewBox="0 0 500 500" style="enable-background:new 0 0 500 500;" xml:space="preserve">
<g id="BACKGROUND">
	<rect style="fill:#FFFFFF;" width="500" height="500"/>
</g>
<g id="OBJECTS">
	<g>
		<path style="fill:#DBE5F2;" d="M88.474,405.68c0,0,25.048,25.412,88.424,18.342c8.548-0.481,0.996-6.291,0.996-6.291
			l57.817-18.348h-11.692l-51.717,13.31C172.301,412.693,76.162,387.914,88.474,405.68z"/>
		<ellipse style="fill:#E6EDF5;" cx="328.543" cy="402.841" rx="71.929" ry="5.022"/>
		<path style="fill:#DBE5F2;" d="M388.39,396.871c0,2.373-57.11,4.296-127.56,4.296s-127.56-1.923-127.56-4.296
			c0-2.373,57.11-4.296,127.56-4.296S388.39,394.499,388.39,396.871z"/>
		<path style="fill:#A2BDD6;" d="M93.332,329.393c-17.018-24.188-12.877-47.582-0.784-58.441c7.603-6.827,11.13-17.634,8.906-28.169
			c-6.393-30.293,5.984-50.754,18.679-59.028c7.613-4.962,12.391-13.809,12.545-23.565c0.608-38.466,26.123-63.88,52.022-62.318
			c7.558,0.456,14.97-2.969,19.881-9.326c23.972-31.031,89.684-32.205,106.691,7.84c4.359,10.265,13.925,16.733,24.167,15.867
			c25.509-2.157,41.895,29.26,40.165,58.184c-0.853,14.263,8.165,26.752,20.93,29.178c32.003,6.082,31.56,43.138,17.405,68.853
			c-5.976,10.855-4.248,24.6,3.93,33.538c3.028,3.309,4.952,7.098,6.036,11.053c4.775,17.414-7.532,34.878-24.018,34.853
			c-190.294-0.28-265.199-5.785-289.371-8.264C103.76,338.954,97.494,335.308,93.332,329.393z"/>
		<path style="fill:#006490;" d="M335.893,292.436c0,0,22.852-21.994,35.646-4.715C384.333,305,413,212.967,434.333,251.984
			C455.667,291,453,336.938,467.667,316.636c14.667-20.302,20,35.293,20,35.293H336.49L335.893,292.436z"/>
		<g>
			<g>
				<path style="fill:#FF989D;" d="M343.708,253.892c-6.161-7.241-4.626-15.393-0.507-16.988
					c4.119-1.595,13.202,10.734,14.677,3.461c1.475-7.273,1.095-9.099-4.87-12.24c-5.965-3.141-12.301-7.376-7.433-11.692
					c4.869-4.316,11.264,9.954,15.237,2.648c3.973-7.307-16.391-14.499-11.561-21.745s9.317,6.805,12.381,4.505
					c3.065-2.3-7.833-22.442,3.005-23.25c10.839-0.808,1.941,22.975,4.31,23.969c2.368,0.993,5.091-3.66,7.711,0.187
					c2.62,3.847-6.785,12.524-6.28,17.473c0.505,4.949,5.702-1.569,11.389,2.162c5.687,3.731-10.547,12.232-9.156,14.923
					c1.391,2.691,7.867-4.284,11.492,0.062c3.625,4.346-0.576,21.545-13.711,26.853
					C357.259,269.529,343.708,253.892,343.708,253.892z"/>
				<g style="opacity:0.2;">
					<linearGradient id="SVGID_1_" gradientUnits="userSpaceOnUse" x1="375.2355" y1="179.4893" x2="375.2355" y2="266.1691">
						<stop  offset="0" style="stop-color:#FF989D"/>
						<stop  offset="1" style="stop-color:#FF8288"/>
					</linearGradient>
					<path style="fill:url(#SVGID_1_);" d="M384.105,238.268c-3.625-4.345-10.101,2.629-11.492-0.062s14.843-11.192,9.156-14.923
						c-5.687-3.731-10.884,2.787-11.389-2.162c-0.505-4.949,8.899-13.627,6.28-17.473c-2.62-3.846-5.343,0.806-7.711-0.187
						c-2.331-0.977,6.239-24.019-3.828-23.971l0.722,86.68c1.509-0.11,3.033-0.434,4.552-1.047
						C383.529,259.813,387.73,242.614,384.105,238.268z"/>
				</g>
				<g>
					<polygon style="fill:#482E54;" points="364.769,185.842 366.846,350.126 365.429,350.138 					"/>
				</g>
				<g>
					<path style="fill:#482E54;" d="M347.783,246.181c0,0,1.679,1.894,4.683,4.169c1.492,1.143,3.341,2.349,5.473,3.329
						c1.075,0.462,2.204,0.917,3.406,1.179c1.193,0.275,2.438,0.457,3.681,0.389c0.623,0.021,1.236-0.11,1.85-0.176
						c0.596-0.162,1.213-0.251,1.776-0.498c1.168-0.379,2.204-1.027,3.162-1.69c0.477-0.336,0.893-0.739,1.33-1.094
						c0.414-0.382,0.778-0.798,1.155-1.181c0.377-0.383,0.671-0.821,0.995-1.209c0.327-0.388,0.605-0.79,0.857-1.187
						c0.26-0.391,0.51-0.766,0.747-1.123c0.213-0.372,0.415-0.725,0.604-1.057c0.389-0.659,0.706-1.246,0.932-1.747
						c0.479-0.99,0.753-1.555,0.753-1.555s-0.258,0.573-0.71,1.576c-0.212,0.509-0.513,1.105-0.885,1.776
						c-0.181,0.338-0.374,0.698-0.577,1.078c-0.234,0.361-0.48,0.742-0.737,1.138c-0.249,0.402-0.526,0.809-0.851,1.203
						c-0.323,0.394-0.615,0.838-0.992,1.229c-0.377,0.39-0.742,0.814-1.156,1.204c-0.439,0.364-0.856,0.776-1.338,1.122
						c-0.966,0.682-2.015,1.352-3.204,1.751c-0.573,0.257-1.202,0.355-1.811,0.526c-0.627,0.074-1.254,0.214-1.891,0.197
						c-1.272,0.057-2.539-0.141-3.748-0.431c-1.217-0.278-2.355-0.749-3.436-1.226c-2.143-1.01-3.989-2.24-5.477-3.402
						c-1.495-1.156-2.632-2.25-3.408-3.029C348.191,246.66,347.783,246.181,347.783,246.181z"/>
				</g>
				<g>
					<path style="fill:#482E54;" d="M352.15,200.78c0,0,0.171,0.334,0.54,0.873c0.367,0.54,0.934,1.283,1.672,2.122
						c1.475,1.661,3.665,3.772,6.34,5.074c0.669,0.313,1.351,0.606,2.056,0.785c0.701,0.184,1.41,0.31,2.1,0.315
						c0.691,0.031,1.356-0.059,1.977-0.181c0.616-0.15,1.185-0.349,1.686-0.588c0.503-0.237,0.938-0.504,1.319-0.751
						c0.372-0.257,0.682-0.506,0.939-0.707c0.484-0.439,0.76-0.691,0.76-0.691s-0.265,0.264-0.729,0.727
						c-0.248,0.213-0.548,0.477-0.911,0.754c-0.372,0.268-0.799,0.56-1.308,0.811c-0.504,0.257-1.08,0.475-1.709,0.646
						c-0.633,0.142-1.318,0.256-2.03,0.226c-0.712,0.001-1.442-0.122-2.163-0.305c-0.725-0.178-1.426-0.471-2.112-0.786
						c-2.721-1.349-4.909-3.503-6.337-5.226c-0.724-0.862-1.244-1.645-1.591-2.2C352.304,201.121,352.15,200.78,352.15,200.78z"/>
				</g>
				<g>
					<path style="fill:#482E54;" d="M349.936,222.417c0,0,0.382,0.286,1.049,0.786c0.343,0.236,0.76,0.523,1.238,0.852
						c0.496,0.302,1.039,0.668,1.654,1.03c0.617,0.359,1.281,0.755,2.016,1.115c0.718,0.393,1.514,0.724,2.326,1.09
						c0.835,0.307,1.68,0.683,2.585,0.918c0.45,0.125,0.896,0.279,1.357,0.383l1.39,0.29c0.46,0.12,0.937,0.137,1.403,0.21
						c0.468,0.06,0.934,0.135,1.401,0.127c0.466,0.013,0.929,0.025,1.386,0.038c0.456-0.02,0.905-0.072,1.348-0.105
						c0.893-0.025,1.72-0.292,2.522-0.432c0.788-0.203,1.504-0.5,2.181-0.719c0.646-0.296,1.226-0.598,1.751-0.845
						c0.538-0.226,0.921-0.569,1.282-0.778c0.698-0.458,1.096-0.719,1.096-0.719s-0.389,0.276-1.07,0.759
						c-0.353,0.221-0.728,0.581-1.259,0.827c-0.517,0.268-1.091,0.595-1.742,0.896c-0.68,0.229-1.4,0.538-2.194,0.754
						c-0.808,0.152-1.643,0.432-2.546,0.469c-0.448,0.039-0.903,0.097-1.364,0.123c-0.463-0.007-0.931-0.013-1.404-0.02
						c-0.474,0.013-0.946-0.056-1.421-0.111c-0.472-0.069-0.957-0.08-1.423-0.197l-1.403-0.311c-0.464-0.11-0.913-0.271-1.366-0.403
						c-0.911-0.25-1.758-0.639-2.595-0.958c-0.813-0.379-1.61-0.722-2.327-1.126c-0.734-0.371-1.396-0.777-2.011-1.146
						c-1.224-0.747-2.176-1.473-2.842-1.975C350.307,222.716,349.936,222.417,349.936,222.417z"/>
				</g>
			</g>
			<g>
				<path style="fill:#FF9677;" d="M380.125,273.264c-4.504-5.294-3.382-11.254-0.371-12.42c3.011-1.166,9.651,7.847,10.73,2.53
					c1.079-5.317,0.8-6.652-3.561-8.948c-4.361-2.297-8.993-5.393-5.434-8.548c3.559-3.155,8.235,7.278,11.14,1.936
					c2.905-5.342-11.983-10.6-8.452-15.897c3.531-5.297,6.811,4.975,9.052,3.294c2.24-1.681-5.727-16.407,2.197-16.998
					c7.924-0.591,1.419,16.797,3.151,17.523c1.731,0.726,3.722-2.675,5.637,0.137c1.915,2.812-4.96,9.156-4.591,12.774
					s4.169-1.147,8.326,1.581c4.158,2.728-7.71,8.942-6.693,10.91c1.017,1.968,5.751-3.132,8.402,0.045
					c2.65,3.177-0.421,15.751-10.024,19.632C390.032,284.696,380.125,273.264,380.125,273.264z"/>
				<g style="opacity:0.2;">
					
						<linearGradient id="SVGID_00000049203664259203876230000008715838617481374910_" gradientUnits="userSpaceOnUse" x1="403.2177" y1="219.1116" x2="403.2177" y2="282.4773">
						<stop  offset="0" style="stop-color:#FF9677"/>
						<stop  offset="1" style="stop-color:#E67F60"/>
					</linearGradient>
					<path style="fill:url(#SVGID_00000049203664259203876230000008715838617481374910_);" d="M409.659,262.084
						c-2.65-3.177-7.385,1.922-8.402-0.045c-1.017-1.967,10.851-8.182,6.693-10.91c-4.158-2.728-7.957,2.037-8.326-1.581
						c-0.369-3.618,6.506-9.962,4.591-12.774c-1.915-2.812-3.906,0.589-5.637-0.137c-1.698-0.712,4.512-17.428-2.712-17.525
						l0.494,63.366c1.086-0.084,2.182-0.319,3.276-0.761C409.238,277.835,412.309,265.261,409.659,262.084z"/>
				</g>
				<g>
					<polygon style="fill:#482E54;" points="395.522,223.514 397.231,351.923 395.814,351.934 					"/>
				</g>
				<g>
					<path style="fill:#482E54;" d="M383.104,267.627c0,0,1.236,1.376,3.436,3.031c1.091,0.833,2.443,1.711,4.001,2.424
						c0.785,0.336,1.61,0.666,2.486,0.856c0.87,0.199,1.778,0.33,2.682,0.279c0.454,0.016,0.9-0.079,1.347-0.126
						c0.434-0.117,0.883-0.181,1.293-0.36c0.851-0.275,1.606-0.745,2.306-1.227c0.349-0.245,0.652-0.538,0.971-0.796
						c0.302-0.278,0.569-0.582,0.845-0.86c0.506-0.596,0.992-1.164,1.355-1.747c0.191-0.285,0.373-0.559,0.547-0.819
						c0.157-0.271,0.306-0.528,0.445-0.77c0.287-0.48,0.521-0.908,0.687-1.273c0.354-0.722,0.557-1.134,0.557-1.134
						s-0.187,0.42-0.514,1.155c-0.153,0.373-0.371,0.81-0.641,1.302c-0.131,0.248-0.271,0.512-0.419,0.79
						c-0.171,0.265-0.35,0.544-0.537,0.834c-0.358,0.592-0.841,1.172-1.346,1.782c-0.276,0.286-0.542,0.597-0.846,0.884
						c-0.321,0.267-0.626,0.569-0.979,0.824c-0.707,0.501-1.476,0.994-2.348,1.289c-0.42,0.19-0.882,0.263-1.329,0.388
						c-0.46,0.055-0.921,0.158-1.388,0.147c-0.934,0.04-1.863-0.106-2.749-0.321c-0.892-0.206-1.725-0.552-2.516-0.903
						c-1.568-0.743-2.918-1.645-4.005-2.497c-1.093-0.847-1.918-1.654-2.483-2.226C383.401,267.978,383.104,267.627,383.104,267.627
						z"/>
				</g>
				<g>
					<path style="fill:#482E54;" d="M386.297,234.435c0,0,0.13,0.242,0.403,0.633c0.273,0.39,0.686,0.933,1.233,1.538
						c0.533,0.618,1.219,1.28,1.992,1.939c0.393,0.322,0.799,0.655,1.25,0.939c0.428,0.32,0.919,0.548,1.388,0.812
						c0.499,0.193,0.977,0.465,1.498,0.559c0.257,0.058,0.508,0.142,0.763,0.179c0.257,0.02,0.512,0.039,0.762,0.058
						c0.251,0.041,0.495-0.01,0.735-0.033c0.239-0.029,0.477-0.043,0.703-0.082c0.433-0.154,0.865-0.252,1.228-0.426
						c0.354-0.198,0.679-0.379,0.967-0.54c0.275-0.182,0.484-0.385,0.672-0.53c0.37-0.303,0.581-0.477,0.581-0.477
						s-0.2,0.186-0.549,0.513c-0.18,0.157-0.379,0.376-0.645,0.578c-0.285,0.178-0.606,0.38-0.957,0.599
						c-0.366,0.191-0.806,0.31-1.25,0.484c-0.469,0.06-0.97,0.2-1.491,0.16c-0.261-0.017-0.526-0.034-0.794-0.051
						c-0.265-0.035-0.526-0.117-0.793-0.175c-0.544-0.094-1.038-0.365-1.555-0.561c-0.479-0.276-0.98-0.518-1.413-0.848
						c-0.456-0.297-0.865-0.64-1.261-0.971c-0.778-0.678-1.434-1.385-1.953-2.023C386.76,235.437,386.297,234.435,386.297,234.435z"
						/>
				</g>
				<g>
					<path style="fill:#482E54;" d="M384.678,250.253c0,0,0.28,0.207,0.771,0.57c0.499,0.351,1.224,0.832,2.123,1.361
						c0.896,0.535,1.985,1.079,3.179,1.591c0.609,0.225,1.225,0.5,1.885,0.673c0.649,0.213,1.324,0.36,2.003,0.494
						c0.679,0.113,1.366,0.224,2.044,0.243c0.34,0.009,0.677,0.017,1.01,0.026c0.332-0.015,0.66-0.053,0.982-0.078
						c0.65-0.022,1.253-0.21,1.839-0.307c0.575-0.144,1.099-0.356,1.595-0.512c0.47-0.223,0.901-0.427,1.282-0.608
						c0.394-0.163,0.676-0.411,0.94-0.562c0.512-0.331,0.805-0.521,0.805-0.521s-0.283,0.204-0.779,0.56
						c-0.257,0.164-0.53,0.429-0.917,0.612c-0.377,0.199-0.796,0.441-1.271,0.665c-0.496,0.172-1.023,0.402-1.603,0.564
						c-0.591,0.116-1.203,0.328-1.866,0.352c-0.328,0.028-0.662,0.07-1.001,0.089c-0.339-0.005-0.683-0.011-1.029-0.016
						c-0.348,0.009-0.693-0.042-1.041-0.083c-0.346-0.051-0.701-0.06-1.043-0.146c-0.689-0.142-1.374-0.298-2.03-0.52
						c-0.668-0.182-1.289-0.466-1.902-0.699c-1.204-0.528-2.278-1.124-3.166-1.681c-0.891-0.554-1.585-1.089-2.069-1.46
						C384.948,250.474,384.678,250.253,384.678,250.253z"/>
				</g>
			</g>
		</g>
		
			<linearGradient id="SVGID_00000072242328482461865320000016078118692440995727_" gradientUnits="userSpaceOnUse" x1="316.814" y1="314.189" x2="472.626" y2="314.189" gradientTransform="matrix(-1 0 0 1 775.814 0)">
			<stop  offset="0" style="stop-color:#FF9677"/>
			<stop  offset="1" style="stop-color:#FF8554"/>
		</linearGradient>
		<path style="fill:url(#SVGID_00000072242328482461865320000016078118692440995727_);" d="M459,360.687
			c0,0-12.468-50.651-53.934-26.918c-24.515,14.031-35.672-55.839-54.822-35.19c-32.291,34.817-22.233-27.893-47.056-30.887
			c0,88.319,0,92.995,0,92.995H459z"/>
		
			<linearGradient id="SVGID_00000130623907498522322690000004016726366189797504_" gradientUnits="userSpaceOnUse" x1="517.4461" y1="297.6571" x2="655.6753" y2="297.6571" gradientTransform="matrix(1 0 0 1 -473.0393 0)">
			<stop  offset="0" style="stop-color:#FF9677"/>
			<stop  offset="1" style="stop-color:#FF8554"/>
		</linearGradient>
		<path style="fill:url(#SVGID_00000130623907498522322690000004016726366189797504_);" d="M44.407,345.384
			c0,0,11.061-51.989,47.848-27.63c21.748,14.401,20.286-46.628,47.252-43.362c20.11,2.435,21.108-21.388,43.129-24.461
			c0,90.653,0,95.453,0,95.453H44.407z"/>
		<path style="fill:#006490;" d="M36.773,354.8h78.74c0,0,4.402-13.694-9.904-9.17c-6.995,2.212,5.607-19.283-11.371-15.222
			c-11.813,2.826-15.956-8.43-24.576-8.253c-22.661,0.465-7.336,18.523-21.152,16.873C37.299,337.688,32.432,346.731,36.773,354.8z"
			/>
		<g>
			<g>
				<path style="fill:#FF9677;" d="M154.649,215.394c9.61-11.004,7.215-23.393,0.791-25.817c-6.424-2.424-20.591,16.312-22.892,5.26
					c-2.301-11.052-1.708-13.827,7.596-18.601c9.304-4.774,19.187-11.21,11.593-17.768c-7.594-6.559-17.569,15.128-23.766,4.024
					c-6.197-11.104,25.566-22.034,18.032-33.045c-7.534-11.011-14.532,10.342-19.311,6.847c-4.78-3.495,12.217-34.105-4.688-35.333
					c-16.905-1.228-3.028,34.916-6.721,36.425s-7.941-5.561-12.027,0.284c-4.086,5.846,10.583,19.033,9.795,26.554
					c-0.788,7.521-8.893-2.384-17.764,3.286c-8.87,5.67,16.45,18.589,14.28,22.679c-2.17,4.09-12.27-6.51-17.924,0.094
					c-5.655,6.604,0.898,32.742,21.385,40.808C133.514,239.157,154.649,215.394,154.649,215.394z"/>
				<g style="opacity:0.2;">
					
						<linearGradient id="SVGID_00000037676031987237970960000018175021580732933050_" gradientUnits="userSpaceOnUse" x1="140.7093" y1="101.8402" x2="140.7093" y2="233.651">
						<stop  offset="0" style="stop-color:#FF9677"/>
						<stop  offset="1" style="stop-color:#E67F60"/>
					</linearGradient>
					<path style="fill:url(#SVGID_00000037676031987237970960000018175021580732933050_);" d="M155.44,190.478
						c-6.424-2.424-20.591,16.312-22.892,5.26c-2.301-11.052-1.708-13.827,7.596-18.601c9.304-4.774,19.187-11.21,11.593-17.768
						c-7.594-6.558-17.569,15.128-23.766,4.024c-6.197-11.104,25.565-22.034,18.032-33.045
						c-7.534-11.011-14.531,10.342-19.311,6.847c-4.78-3.495,12.217-34.105-4.688-35.333c-0.182-0.013-0.356-0.016-0.531-0.021
						l-1.126,131.762c17.907,1.115,34.303-17.308,34.303-17.308C164.259,205.291,161.864,192.902,155.44,190.478z"/>
				</g>
				<g>
					<polygon style="fill:#482E54;" points="121.8,111.979 120.375,361.655 118.957,361.643 					"/>
				</g>
				<g>
					<path style="fill:#482E54;" d="M148.294,203.676c0,0-0.643,0.729-1.861,1.915c-0.608,0.594-1.365,1.297-2.254,2.08
						c-0.897,0.773-1.914,1.643-3.089,2.507c-2.323,1.761-5.201,3.618-8.525,5.138c-1.676,0.717-3.438,1.424-5.316,1.842
						c-1.865,0.442-3.817,0.731-5.773,0.654c-0.981,0.026-1.946-0.168-2.913-0.277c-0.476-0.101-0.946-0.228-1.417-0.34
						l-0.705-0.173l-0.678-0.252c-0.451-0.168-0.9-0.335-1.346-0.502c-0.424-0.216-0.847-0.432-1.267-0.645
						c-0.863-0.388-1.601-0.966-2.37-1.46c-0.769-0.497-1.408-1.141-2.097-1.687c-0.669-0.571-1.226-1.233-1.821-1.821
						c-0.61-0.577-1.056-1.268-1.567-1.865c-0.246-0.307-0.488-0.609-0.725-0.906c-0.212-0.315-0.42-0.624-0.623-0.927
						c-0.405-0.607-0.793-1.188-1.162-1.742c-0.337-0.573-0.633-1.13-0.924-1.646c-0.288-0.518-0.557-1.002-0.805-1.45
						c-0.236-0.454-0.423-0.888-0.607-1.27c-0.721-1.539-1.134-2.418-1.134-2.418s0.428,0.872,1.176,2.397
						c0.191,0.379,0.385,0.808,0.629,1.258c0.256,0.443,0.534,0.922,0.83,1.434c0.299,0.51,0.604,1.06,0.95,1.625
						c0.372,0.548,0.764,1.125,1.172,1.726c0.204,0.3,0.413,0.607,0.626,0.919c0.238,0.294,0.48,0.593,0.727,0.897
						c0.512,0.591,0.96,1.276,1.57,1.846c0.595,0.58,1.152,1.235,1.82,1.797c0.687,0.537,1.324,1.172,2.089,1.659
						c0.765,0.484,1.498,1.052,2.354,1.43c0.416,0.209,0.835,0.419,1.255,0.63c0.442,0.161,0.886,0.324,1.332,0.487l0.67,0.245
						l0.696,0.166c0.465,0.107,0.93,0.23,1.399,0.326c0.955,0.101,1.906,0.286,2.874,0.256c1.928,0.088,3.859-0.185,5.709-0.612
						c1.863-0.402,3.617-1.093,5.287-1.796c3.313-1.491,6.193-3.323,8.52-5.065c1.173-0.86,2.204-1.708,3.114-2.462
						c0.901-0.766,1.67-1.454,2.287-2.037C147.637,204.393,148.294,203.676,148.294,203.676z"/>
				</g>
				<g>
					<path style="fill:#482E54;" d="M141.483,134.68c0,0-0.249,0.523-0.801,1.374c-0.553,0.847-1.384,2.038-2.532,3.345
						c-2.271,2.606-5.702,5.867-9.917,7.9c-1.064,0.471-2.152,0.898-3.268,1.167c-1.114,0.265-2.236,0.451-3.331,0.443
						c-1.094,0.036-2.146-0.122-3.123-0.331c-0.97-0.249-1.862-0.571-2.646-0.952c-0.384-0.207-0.765-0.38-1.103-0.589
						c-0.331-0.219-0.645-0.427-0.939-0.622c-0.571-0.415-1.041-0.816-1.433-1.135c-0.732-0.7-1.15-1.099-1.15-1.099
						s0.429,0.387,1.181,1.063c0.401,0.307,0.88,0.692,1.46,1.087c0.298,0.185,0.616,0.382,0.95,0.589
						c0.34,0.198,0.717,0.37,1.099,0.569c0.779,0.369,1.663,0.678,2.622,0.913c0.965,0.195,2.002,0.341,3.078,0.294
						c1.076-0.003,2.179-0.198,3.273-0.47c1.097-0.276,2.165-0.709,3.21-1.183c4.181-1.963,7.636-5.172,9.923-7.745
						c1.151-1.293,2.036-2.436,2.606-3.271C141.218,135.197,141.483,134.68,141.483,134.68z"/>
				</g>
				<g>
					<path style="fill:#482E54;" d="M144.936,167.561c0,0-0.585,0.454-1.609,1.249c-0.528,0.377-1.169,0.835-1.905,1.36
						c-0.762,0.484-1.598,1.073-2.562,1.628c-0.961,0.56-2,1.173-3.146,1.735c-1.12,0.613-2.365,1.126-3.633,1.7
						c-0.644,0.264-1.313,0.498-1.982,0.753c-0.336,0.124-0.674,0.249-1.014,0.375l-1.047,0.311
						c-0.704,0.197-1.401,0.443-2.124,0.604c-0.724,0.155-1.451,0.31-2.179,0.465c-0.724,0.173-1.474,0.195-2.207,0.299
						c-0.736,0.085-1.467,0.188-2.202,0.171c-0.732,0.012-1.458,0.023-2.176,0.035c-0.716-0.039-1.421-0.124-2.115-0.182
						c-0.347-0.032-0.691-0.064-1.032-0.096c-0.34-0.037-0.668-0.133-0.997-0.195c-0.656-0.14-1.298-0.277-1.923-0.41
						c-1.235-0.319-2.355-0.789-3.414-1.133c-1.016-0.452-1.914-0.947-2.723-1.348c-0.201-0.103-0.396-0.202-0.585-0.298
						c-0.175-0.119-0.343-0.234-0.505-0.344c-0.323-0.22-0.62-0.423-0.888-0.606c-1.071-0.73-1.683-1.148-1.683-1.148
						s0.622,0.403,1.709,1.108c0.272,0.176,0.572,0.371,0.9,0.583c0.164,0.106,0.334,0.216,0.51,0.331
						c0.19,0.091,0.387,0.186,0.59,0.283c0.817,0.38,1.721,0.85,2.732,1.297c1.056,0.333,2.172,0.791,3.401,1.098
						c0.621,0.127,1.26,0.258,1.912,0.392c0.327,0.059,0.653,0.152,0.991,0.186c0.339,0.029,0.681,0.057,1.025,0.087
						c0.69,0.052,1.39,0.131,2.1,0.164c0.712-0.017,1.432-0.035,2.158-0.052c0.728,0.012,1.453-0.096,2.183-0.187
						c0.726-0.109,1.468-0.137,2.187-0.313c0.723-0.148,1.446-0.297,2.166-0.445c0.719-0.153,1.414-0.393,2.115-0.583l1.043-0.301
						c0.339-0.122,0.676-0.244,1.011-0.365c0.668-0.249,1.335-0.476,1.978-0.734c1.267-0.562,2.511-1.063,3.632-1.665
						c1.146-0.551,2.187-1.154,3.15-1.705c0.963-0.551,1.81-1.117,2.583-1.582c0.746-0.507,1.397-0.949,1.932-1.313
						C144.34,168.002,144.936,167.561,144.936,167.561z"/>
				</g>
			</g>
			<g>
				<path style="fill:#FF989D;" d="M97.849,244.834c7.026-8.045,5.275-17.102,0.578-18.874c-4.697-1.772-15.054,11.925-16.736,3.846
					c-1.683-8.08-1.248-10.109,5.553-13.599c6.802-3.49,14.027-8.195,8.475-12.99c-5.552-4.795-12.844,11.06-17.375,2.942
					c-4.531-8.118,18.69-16.109,13.182-24.158c-5.508-8.05-10.624,7.561-14.118,5.005c-3.494-2.555,8.932-24.933-3.427-25.831
					c-12.359-0.898-2.214,25.526-4.914,26.629c-2.701,1.103-5.806-4.066-8.793,0.208c-2.987,4.274,7.737,13.914,7.161,19.413
					c-0.576,5.498-6.502-1.743-12.987,2.402c-6.485,4.145,12.026,13.59,10.44,16.58c-1.586,2.99-8.97-4.759-13.104,0.069
					c-4.134,4.828,0.656,23.937,15.634,29.834C82.397,262.207,97.849,244.834,97.849,244.834z"/>
				<g style="opacity:0.2;">
					
						<linearGradient id="SVGID_00000120533769833108524100000011612823020505491133_" gradientUnits="userSpaceOnUse" x1="87.6388" y1="162.0685" x2="87.6388" y2="258.4222">
						<stop  offset="0" style="stop-color:#FF989D"/>
						<stop  offset="1" style="stop-color:#FF8288"/>
					</linearGradient>
					<path style="fill:url(#SVGID_00000120533769833108524100000011612823020505491133_);" d="M98.427,226.86
						c-4.697-1.772-15.054,11.925-16.736,3.845c-1.682-8.08-1.248-10.109,5.553-13.599c6.802-3.49,14.027-8.195,8.475-12.99
						c-5.552-4.795-12.844,11.06-17.375,2.942c-4.531-8.118,18.69-16.109,13.182-24.158c-5.508-8.05-10.624,7.561-14.118,5.005
						c-3.494-2.555,8.932-24.933-3.427-25.831c-0.169-0.012-0.318,0-0.479-0.003l-0.77,96.313
						c13.106,0.843,25.116-12.65,25.116-12.65C104.874,237.69,103.124,228.632,98.427,226.86z"/>
				</g>
				<g>
					<polygon style="fill:#482E54;" points="73.834,169.229 72.982,364.384 71.565,364.373 					"/>
				</g>
				<g>
					<path style="fill:#482E54;" d="M93.202,236.266c0,0-0.469,0.534-1.356,1.405c-0.889,0.868-2.192,2.082-3.898,3.365
						c-1.698,1.29-3.801,2.651-6.233,3.766c-1.226,0.527-2.515,1.045-3.891,1.353c-1.365,0.326-2.795,0.538-4.23,0.484
						c-0.719,0.019-1.427-0.125-2.135-0.205l-1.039-0.25c-0.349-0.072-0.687-0.176-1.013-0.313l-0.986-0.369
						c-0.311-0.159-0.62-0.317-0.928-0.474c-0.632-0.285-1.172-0.709-1.735-1.071c-0.563-0.365-1.03-0.837-1.534-1.237
						c-0.49-0.418-0.897-0.903-1.332-1.334c-0.446-0.423-0.772-0.929-1.145-1.366c-0.18-0.225-0.356-0.446-0.53-0.663
						c-0.155-0.231-0.307-0.457-0.455-0.679c-0.296-0.444-0.579-0.87-0.848-1.275c-0.236-0.425-0.461-0.828-0.672-1.206
						c-0.428-0.754-0.781-1.421-1.026-1.993c-0.524-1.127-0.823-1.771-0.823-1.771s0.315,0.636,0.866,1.75
						c0.259,0.565,0.627,1.222,1.073,1.964c0.219,0.372,0.452,0.768,0.698,1.185c0.272,0.4,0.559,0.821,0.858,1.26
						c0.15,0.219,0.302,0.443,0.458,0.671c0.174,0.214,0.351,0.432,0.532,0.655c0.375,0.431,0.702,0.931,1.148,1.346
						c0.435,0.423,0.842,0.901,1.33,1.31c0.502,0.391,0.967,0.855,1.526,1.209c0.558,0.353,1.094,0.766,1.719,1.041
						c0.304,0.152,0.609,0.305,0.916,0.459l0.972,0.354c0.321,0.132,0.654,0.231,0.997,0.298l1.021,0.237
						c0.696,0.073,1.39,0.207,2.095,0.184c1.406,0.066,2.815-0.132,4.165-0.442c1.36-0.292,2.641-0.795,3.861-1.307
						c2.421-1.086,4.527-2.422,6.228-3.693C91.282,238.384,93.202,236.266,93.202,236.266z"/>
				</g>
				<g>
					<path style="fill:#482E54;" d="M88.223,185.825c0,0-0.18,0.384-0.58,1.008c-0.402,0.621-1.003,1.498-1.841,2.455
						c-1.658,1.91-4.163,4.301-7.25,5.797c-1.549,0.706-3.232,1.171-4.84,1.172c-0.802,0.025-1.574-0.093-2.289-0.247
						c-0.711-0.184-1.364-0.421-1.938-0.701c-0.579-0.274-1.068-0.596-1.492-0.893c-0.417-0.306-0.759-0.601-1.044-0.836
						c-0.533-0.514-0.837-0.808-0.837-0.808s0.315,0.281,0.868,0.772c0.294,0.223,0.646,0.502,1.071,0.788
						c0.434,0.276,0.928,0.572,1.499,0.839c0.569,0.268,1.214,0.492,1.913,0.663c0.704,0.141,1.46,0.246,2.244,0.21
						c1.572-0.022,3.211-0.501,4.724-1.214c3.052-1.425,5.581-3.765,7.255-5.641c0.842-0.943,1.496-1.773,1.916-2.381
						C88.027,186.202,88.223,185.825,88.223,185.825z"/>
				</g>
				<g>
					<path style="fill:#482E54;" d="M90.748,209.864c0,0-0.426,0.334-1.173,0.919c-0.765,0.559-1.858,1.367-3.259,2.197
						c-0.703,0.411-1.462,0.86-2.299,1.273c-0.819,0.449-1.729,0.826-2.656,1.248c-0.954,0.352-1.921,0.782-2.957,1.058
						c-0.515,0.145-1.025,0.326-1.554,0.444l-1.594,0.343c-0.53,0.126-1.08,0.141-1.616,0.217c-0.539,0.062-1.075,0.136-1.612,0.122
						c-0.536,0.008-1.068,0.016-1.593,0.023c-0.524-0.029-1.04-0.092-1.549-0.136c-1.024-0.041-1.974-0.349-2.892-0.517
						c-0.903-0.235-1.723-0.58-2.497-0.833c-0.744-0.331-1.399-0.696-1.99-0.992c-0.301-0.14-0.565-0.299-0.795-0.473
						c-0.236-0.162-0.452-0.311-0.648-0.446c-0.781-0.538-1.227-0.845-1.227-0.845s0.456,0.293,1.253,0.805
						c0.199,0.128,0.419,0.269,0.659,0.423c0.233,0.165,0.502,0.316,0.806,0.445c0.599,0.275,1.26,0.615,1.999,0.941
						c0.771,0.242,1.587,0.575,2.485,0.798c0.912,0.156,1.854,0.452,2.869,0.48c0.504,0.037,1.015,0.094,1.533,0.118
						c0.52-0.013,1.045-0.027,1.576-0.041c0.531,0.008,1.061-0.072,1.593-0.139c0.53-0.08,1.072-0.102,1.596-0.231l1.582-0.322
						c0.525-0.111,1.033-0.285,1.545-0.423c1.031-0.262,1.995-0.678,2.947-1.018c0.926-0.409,1.836-0.774,2.656-1.212
						c0.838-0.401,1.599-0.84,2.303-1.242c0.704-0.402,1.325-0.813,1.891-1.15c0.547-0.368,1.024-0.689,1.416-0.953
						C90.311,210.184,90.748,209.864,90.748,209.864z"/>
				</g>
			</g>
		</g>
		<g>
			<path style="fill:#ECECEC;" d="M157.635,393.292c-0.292-1.876,1.502-4.377,5.588-7.203h0
				c9.666-6.684,28.215-12.566,40.605-12.566H343.06V146.167H203.828c-12.39,0-30.939,5.882-40.605,12.566h0
				c-3.322,2.298-5.129,4.381-5.531,6.088L157.635,393.292z"/>
			<path style="fill:#E0E0E0;" d="M167.633,163.229c-0.34-1.135,0.767-2.716,3.436-4.496h0c5.61-3.741,15.901-6.917,22.722-6.917
				H336.49v225.335H167.574V163.229"/>
			<path style="fill:#ECECEC;" d="M176.93,160.763c-0.174-0.506,0.342-1.226,1.59-2.031l0,0c2.459-1.586,6.808-2.898,9.664-2.898
				h143.631v224.323H176.897"/>
			<path style="fill:#D6D6D6;" d="M176.93,160.763c0.162,0.47,0.921,0.757,2.245,0.757h146.029v222.952H176.897L176.93,160.763z"/>
			<path style="fill:#ECECEC;" d="M167.633,163.229c0.34,1.135,2.126,1.826,5.243,1.826h148.217v224.646h-153.52L167.633,163.229z"
				/>
		</g>
		<g>
			<g>
				<path style="fill:#401A4C;" d="M166.977,377.151c0,0-0.061-13.37-0.152-33.425c-0.036-20.055-0.083-46.796-0.131-73.536
					c0.047-26.74,0.095-53.481,0.13-73.536c0.092-20.055,0.153-33.425,0.153-33.425s0.061,13.37,0.153,33.425
					c0.036,20.055,0.083,46.796,0.13,73.536c-0.048,26.74-0.095,53.481-0.131,73.536
					C167.038,363.781,166.977,377.151,166.977,377.151z"/>
			</g>
			<g>
				<path style="fill:#401A4C;" d="M167.036,163.229c-0.126-0.438-0.033-0.907,0.163-1.31c0.191-0.408,0.463-0.773,0.76-1.11
					c0.597-0.676,1.308-1.239,2.035-1.766c1.479-1.027,3.063-1.895,4.692-2.658c3.262-1.525,6.693-2.675,10.193-3.518
					c1.75-0.421,3.525-0.752,5.317-0.948c1.793-0.218,3.602-0.186,5.397-0.193l10.792-0.029l43.169-0.056l86.338-0.081l0.256,0
					l0,0.256l-0.052,112.668l-0.191,112.668l0,0.013h-0.013l-4.675-0.013l4.675-0.013l-0.013,0.013l-0.191-112.668l-0.051-112.668
					l0.256,0.256l-86.338-0.081l-43.169-0.056l-10.792-0.03c-1.8-0.003-3.597-0.045-5.382,0.163
					c-1.785,0.185-3.557,0.505-5.306,0.916c-3.496,0.822-6.929,1.951-10.195,3.456c-1.632,0.753-3.217,1.611-4.7,2.628
					c-0.729,0.522-1.442,1.081-2.041,1.751c-0.298,0.335-0.572,0.697-0.765,1.103C167.008,162.323,166.913,162.79,167.036,163.229z"
					/>
			</g>
			<g>
				<path style="fill:none;" d="M176.3,380.158"/>
			</g>
			<g>
				<path style="fill:#401A4C;" d="M176.333,160.763c-0.127-0.412,0.16-0.8,0.417-1.092c0.275-0.303,0.601-0.553,0.933-0.788
					c0.676-0.457,1.399-0.842,2.142-1.178c1.489-0.667,3.049-1.177,4.645-1.523c0.798-0.171,1.607-0.3,2.422-0.356
					c0.818-0.049,1.632-0.022,2.448-0.033l4.892-0.014l19.569-0.056l39.139-0.058l78.277-0.077l0.247,0l0,0.247l-0.036,112.161
					l-0.191,112.161v0.019h-0.019l-6.612-0.019l6.612-0.019l-0.019,0.019l-0.191-112.161l-0.036-112.161l0.246,0.246l-78.277-0.077
					l-39.139-0.058l-19.569-0.056l-4.892-0.014c-0.815,0.006-1.633-0.025-2.443,0.019c-0.812,0.051-1.618,0.176-2.415,0.341
					c-1.594,0.336-3.154,0.836-4.645,1.494c-0.744,0.331-1.468,0.711-2.146,1.164c-0.333,0.233-0.661,0.481-0.936,0.781
					C176.497,159.966,176.209,160.351,176.333,160.763z"/>
			</g>
			<g>
				<path style="fill:#401A4C;" d="M176.333,165.056l-0.012-4.292l0-0.068l0.025,0.064c0.142,0.37,0.558,0.519,0.916,0.612
					c0.374,0.09,0.762,0.121,1.147,0.127l2.32-0.004l4.641-0.014l9.283-0.027l18.565-0.054l37.13-0.051l74.26-0.074l0.246,0l0,0.246
					l-0.037,111.476l-0.198,111.476l0,0.011l-0.011,0l-3.756-0.011l3.756-0.011l-0.011,0.011l-0.198-111.476l-0.037-111.476
					l0.246,0.246l-74.26-0.074l-37.13-0.051l-18.565-0.054l-9.283-0.027l-4.641-0.014l-2.321-0.009
					c-0.387-0.009-0.776-0.042-1.154-0.135c-0.361-0.096-0.785-0.248-0.932-0.635l0.024-0.004L176.333,165.056z"/>
			</g>
			<g>
				<path style="fill:#401A4C;" d="M167.036,163.229c0.262,0.792,1.083,1.193,1.828,1.417c0.769,0.231,1.572,0.33,2.371,0.376
					c1.604,0.057,3.21,0.014,4.814,0.026l9.63-0.007l19.26-0.014l38.519-0.029l77.038-0.057h0.115l0,0.115l0.167,224.646l0,0.282
					l-0.282,0l-153.52-0.112l-0.17,0l0-0.17L167.036,163.229z M167.036,163.229l0.11,226.472l-0.17-0.17l153.52-0.112l-0.282,0.282
					l0.167-224.646l0.115,0.115l-77.038-0.057l-38.519-0.029l-19.26-0.014l-9.63-0.007c-1.605-0.014-3.21,0.027-4.815-0.033
					c-0.8-0.047-1.603-0.148-2.372-0.38C168.119,164.424,167.298,164.021,167.036,163.229z"/>
			</g>
		</g>
		<path style="fill:#FFFFFF;" d="M315.967,169.463H166.863c-6.613,0-9.842-1.798-9.171-4.643l-0.056,228.472
			c0.34,2.191,3.527,3.528,9.227,3.528h149.104V169.463z"/>
		
			<text transform="matrix(1 0 0 1 172.272 220.9907)" style="fill:#006490; font-family:'AbrilFatface-Regular'; font-size:44.6404px;">NEWS</text>
		<rect x="167.591" y="227.07" style="fill:#006490;" width="136.485" height="6.798"/>
		<path style="fill:#006490;" d="M167.591,184.19h52.044v-6.798h-52.044V184.19z M252.032,177.392v6.798h52.044v-6.798H252.032z"/>
		<rect x="167.591" y="377.413" style="fill:#A2BDD6;" width="136.485" height="6.798"/>
		<rect x="240.278" y="243.281" style="fill:#FF989D;" width="63.797" height="58.045"/>
		<path style="fill:#FF989D;" d="M294.663,269.95c-6.275,1.569-10.982,18.041-16.472,7.06c-3.922-7.844,7.06-21.963-3.138-27.454
			c-9.413-6.275-21.963,2.353-14.904,14.904c1.569,3.922,4.706,7.844,3.138,11.766c-4.117,8.921-14.238,7.636-23.009,8.225v16.876
			h63.798v-30.142C301.503,269.689,298.446,269.128,294.663,269.95z"/>
		<path style="fill:#A2BDD6;" d="M240.278,243.281v41.17c8.771-0.589,18.892,0.696,23.009-8.225
			c1.569-3.922-1.569-7.844-3.138-11.766c-7.06-12.55,5.491-21.179,14.904-14.904c10.197,5.491-0.784,19.61,3.138,27.454
			c5.491,10.982,10.197-5.491,16.472-7.06c3.783-0.822,6.84-0.261,9.413,1.234v-27.903H240.278z"/>
		<g>
			<rect x="167.574" y="243.281" style="fill:#FFBFB0;" width="63.797" height="98.311"/>
			<g>
				<path style="fill:#401A4C;" d="M170.163,255.308c0,0,3.629-0.063,9.074-0.159c2.722-0.025,5.898-0.055,9.3-0.087
					c3.402-0.012,7.032-0.025,10.661-0.038c3.629,0.013,7.259,0.025,10.661,0.037c3.403,0.032,6.578,0.061,9.3,0.086
					c5.444,0.096,9.074,0.16,9.074,0.16s-3.63,0.064-9.074,0.16c-2.722,0.025-5.898,0.055-9.3,0.086
					c-3.403,0.012-7.032,0.025-10.661,0.037c-3.629-0.013-7.259-0.026-10.661-0.038c-3.403-0.032-6.578-0.061-9.3-0.087
					C173.792,255.372,170.163,255.308,170.163,255.308z"/>
			</g>
			<g>
				<path style="fill:#401A4C;" d="M170.163,261.06c0,0,3.629-0.064,9.074-0.159c2.722-0.025,5.898-0.055,9.3-0.086
					c3.402-0.012,7.032-0.025,10.661-0.038c3.629,0.013,7.259,0.025,10.661,0.037c3.403,0.032,6.578,0.061,9.3,0.086
					c5.444,0.096,9.074,0.16,9.074,0.16s-3.63,0.064-9.074,0.16c-2.722,0.025-5.898,0.055-9.3,0.086
					c-3.403,0.012-7.032,0.025-10.661,0.037c-3.629-0.013-7.259-0.026-10.661-0.038c-3.403-0.032-6.578-0.061-9.3-0.087
					C173.792,261.124,170.163,261.06,170.163,261.06z"/>
			</g>
			<g>
				<path style="fill:#401A4C;" d="M170.163,266.813c0,0,3.629-0.064,9.074-0.159c2.722-0.025,5.898-0.055,9.3-0.087
					c3.402-0.012,7.032-0.025,10.661-0.038c3.629,0.013,7.259,0.025,10.661,0.037c3.403,0.032,6.578,0.061,9.3,0.086
					c5.444,0.096,9.074,0.16,9.074,0.16s-3.63,0.064-9.074,0.159c-2.722,0.025-5.898,0.055-9.3,0.086
					c-3.403,0.012-7.032,0.025-10.661,0.037c-3.629-0.013-7.259-0.026-10.661-0.038c-3.403-0.032-6.578-0.061-9.3-0.087
					C173.792,266.876,170.163,266.813,170.163,266.813z"/>
			</g>
			<g>
				<path style="fill:#401A4C;" d="M170.163,272.565c0,0,3.629-0.064,9.074-0.159c2.722-0.025,5.898-0.055,9.3-0.087
					c3.402-0.012,7.032-0.025,10.661-0.038c3.629,0.013,7.259,0.025,10.661,0.037c3.403,0.032,6.578,0.061,9.3,0.086
					c5.444,0.096,9.074,0.16,9.074,0.16s-3.63,0.064-9.074,0.16c-2.722,0.025-5.898,0.055-9.3,0.086
					c-3.403,0.012-7.032,0.025-10.661,0.037c-3.629-0.013-7.259-0.026-10.661-0.038c-3.403-0.032-6.578-0.061-9.3-0.087
					C173.792,272.629,170.163,272.565,170.163,272.565z"/>
			</g>
			<g>
				<path style="fill:#401A4C;" d="M170.163,278.317c0,0,3.629-0.064,9.074-0.159c2.722-0.025,5.898-0.055,9.3-0.087
					c3.402-0.012,7.032-0.025,10.661-0.038c3.629,0.013,7.259,0.025,10.661,0.037c3.403,0.032,6.578,0.061,9.3,0.086
					c5.444,0.096,9.074,0.16,9.074,0.16s-3.63,0.064-9.074,0.16c-2.722,0.025-5.898,0.055-9.3,0.086
					c-3.403,0.012-7.032,0.024-10.661,0.037c-3.629-0.013-7.259-0.026-10.661-0.038c-3.403-0.032-6.578-0.061-9.3-0.086
					C173.792,278.381,170.163,278.317,170.163,278.317z"/>
			</g>
			<g>
				<path style="fill:#401A4C;" d="M170.163,284.069c0,0,3.629-0.064,9.074-0.159c2.722-0.025,5.898-0.055,9.3-0.087
					c3.402-0.012,7.032-0.025,10.661-0.038c3.629,0.013,7.259,0.025,10.661,0.037c3.403,0.032,6.578,0.061,9.3,0.086
					c5.444,0.096,9.074,0.159,9.074,0.159s-3.63,0.064-9.074,0.16c-2.722,0.025-5.898,0.055-9.3,0.086
					c-3.403,0.012-7.032,0.025-10.661,0.037c-3.629-0.013-7.259-0.026-10.661-0.038c-3.403-0.032-6.578-0.061-9.3-0.087
					C173.792,284.133,170.163,284.069,170.163,284.069z"/>
			</g>
			<g>
				<path style="fill:#401A4C;" d="M170.163,289.822c0,0,3.629-0.064,9.074-0.159c2.722-0.025,5.898-0.055,9.3-0.086
					c3.402-0.012,7.032-0.025,10.661-0.038c3.629,0.013,7.259,0.025,10.661,0.037c3.403,0.032,6.578,0.061,9.3,0.086
					c5.444,0.096,9.074,0.159,9.074,0.159s-3.63,0.064-9.074,0.16c-2.722,0.025-5.898,0.055-9.3,0.086
					c-3.403,0.012-7.032,0.025-10.661,0.037c-3.629-0.013-7.259-0.026-10.661-0.038c-3.403-0.032-6.578-0.061-9.3-0.087
					C173.792,289.885,170.163,289.822,170.163,289.822z"/>
			</g>
			<g>
				<path style="fill:#401A4C;" d="M170.163,295.574c0,0,3.629-0.064,9.074-0.159c2.722-0.025,5.898-0.055,9.3-0.087
					c3.402-0.012,7.032-0.025,10.661-0.038c3.629,0.013,7.259,0.025,10.661,0.037c3.403,0.032,6.578,0.061,9.3,0.086
					c5.444,0.096,9.074,0.16,9.074,0.16s-3.63,0.064-9.074,0.159c-2.722,0.025-5.898,0.055-9.3,0.086
					c-3.403,0.012-7.032,0.025-10.661,0.037c-3.629-0.013-7.259-0.026-10.661-0.038c-3.403-0.032-6.578-0.061-9.3-0.087
					C173.792,295.637,170.163,295.574,170.163,295.574z"/>
			</g>
			<g>
				<path style="fill:#401A4C;" d="M170.163,301.326c0,0,3.629-0.064,9.074-0.159c2.722-0.025,5.898-0.055,9.3-0.087
					c3.402-0.012,7.032-0.025,10.661-0.038c3.629,0.013,7.259,0.025,10.661,0.037c3.403,0.032,6.578,0.061,9.3,0.086
					c5.444,0.096,9.074,0.16,9.074,0.16s-3.63,0.064-9.074,0.159c-2.722,0.025-5.898,0.055-9.3,0.086
					c-3.403,0.012-7.032,0.025-10.661,0.037c-3.629-0.013-7.259-0.026-10.661-0.038c-3.403-0.032-6.578-0.061-9.3-0.087
					C173.792,301.39,170.163,301.326,170.163,301.326z"/>
			</g>
			<g>
				<path style="fill:#401A4C;" d="M170.163,307.078c0,0,3.629-0.064,9.074-0.159c2.722-0.025,5.898-0.055,9.3-0.087
					c3.402-0.012,7.032-0.025,10.661-0.038c3.629,0.013,7.259,0.025,10.661,0.037c3.403,0.032,6.578,0.061,9.3,0.086
					c5.444,0.096,9.074,0.16,9.074,0.16s-3.63,0.064-9.074,0.16c-2.722,0.025-5.898,0.055-9.3,0.086
					c-3.403,0.012-7.032,0.025-10.661,0.037c-3.629-0.013-7.259-0.026-10.661-0.038c-3.403-0.032-6.578-0.061-9.3-0.086
					C173.792,307.142,170.163,307.078,170.163,307.078z"/>
			</g>
			<g>
				<path style="fill:#401A4C;" d="M170.163,312.831c0,0,3.629-0.064,9.074-0.159c2.722-0.025,5.898-0.055,9.3-0.086
					c3.402-0.012,7.032-0.025,10.661-0.038c3.629,0.013,7.259,0.025,10.661,0.037c3.403,0.032,6.578,0.061,9.3,0.086
					c5.444,0.096,9.074,0.16,9.074,0.16s-3.63,0.064-9.074,0.16c-2.722,0.025-5.898,0.055-9.3,0.086
					c-3.403,0.012-7.032,0.025-10.661,0.037c-3.629-0.013-7.259-0.026-10.661-0.038c-3.403-0.032-6.578-0.061-9.3-0.087
					C173.792,312.894,170.163,312.831,170.163,312.831z"/>
			</g>
			<g>
				<path style="fill:#401A4C;" d="M170.163,318.583c0,0,3.629-0.064,9.074-0.159c2.722-0.025,5.898-0.055,9.3-0.087
					c3.402-0.012,7.032-0.025,10.661-0.038c3.629,0.013,7.259,0.025,10.661,0.037c3.403,0.032,6.578,0.061,9.3,0.086
					c5.444,0.096,9.074,0.159,9.074,0.159s-3.63,0.064-9.074,0.16c-2.722,0.025-5.898,0.055-9.3,0.086
					c-3.403,0.012-7.032,0.025-10.661,0.037c-3.629-0.013-7.259-0.026-10.661-0.038c-3.403-0.032-6.578-0.061-9.3-0.087
					C173.792,318.646,170.163,318.583,170.163,318.583z"/>
			</g>
			<g>
				<path style="fill:#401A4C;" d="M170.163,324.335c0,0,3.629-0.063,9.074-0.159c2.722-0.025,5.898-0.055,9.3-0.087
					c3.402-0.012,7.032-0.025,10.661-0.038c3.629,0.013,7.259,0.025,10.661,0.037c3.403,0.031,6.578,0.061,9.3,0.086
					c5.444,0.096,9.074,0.159,9.074,0.159s-3.63,0.064-9.074,0.16c-2.722,0.025-5.898,0.055-9.3,0.086
					c-3.403,0.012-7.032,0.025-10.661,0.037c-3.629-0.013-7.259-0.026-10.661-0.038c-3.403-0.032-6.578-0.061-9.3-0.087
					C173.792,324.399,170.163,324.335,170.163,324.335z"/>
			</g>
			<g>
				<path style="fill:#401A4C;" d="M170.163,330.087c0,0,3.629-0.064,9.074-0.159c2.722-0.025,5.898-0.055,9.3-0.087
					c3.402-0.012,7.032-0.025,10.661-0.038c3.629,0.013,7.259,0.025,10.661,0.037c3.403,0.032,6.578,0.061,9.3,0.086
					c5.444,0.096,9.074,0.16,9.074,0.16s-3.63,0.064-9.074,0.159c-2.722,0.025-5.898,0.055-9.3,0.086
					c-3.403,0.012-7.032,0.025-10.661,0.037c-3.629-0.013-7.259-0.026-10.661-0.038c-3.403-0.032-6.578-0.061-9.3-0.087
					C173.792,330.151,170.163,330.087,170.163,330.087z"/>
			</g>
			<g>
				<g>
					<path style="fill:#401A4C;" d="M243.142,307.078c0,0,3.63-0.064,9.074-0.159c2.722-0.025,5.898-0.055,9.3-0.087
						c3.403-0.012,7.032-0.025,10.661-0.038c3.629,0.013,7.259,0.025,10.661,0.037c3.403,0.032,6.578,0.061,9.301,0.086
						c5.444,0.096,9.074,0.16,9.074,0.16s-3.629,0.064-9.074,0.16c-2.722,0.025-5.898,0.055-9.301,0.086
						c-3.402,0.012-7.032,0.025-10.661,0.037c-3.629-0.013-7.259-0.026-10.661-0.038c-3.403-0.032-6.578-0.061-9.3-0.086
						C246.771,307.142,243.142,307.078,243.142,307.078z"/>
				</g>
				<g>
					<path style="fill:#401A4C;" d="M243.142,312.831c0,0,3.63-0.064,9.074-0.159c2.722-0.025,5.898-0.055,9.3-0.086
						c3.403-0.012,7.032-0.025,10.661-0.038c3.629,0.013,7.259,0.025,10.661,0.037c3.403,0.032,6.578,0.061,9.301,0.086
						c5.444,0.096,9.074,0.16,9.074,0.16s-3.629,0.064-9.074,0.16c-2.722,0.025-5.898,0.055-9.301,0.086
						c-3.402,0.012-7.032,0.025-10.661,0.037c-3.629-0.013-7.259-0.026-10.661-0.038c-3.403-0.032-6.578-0.061-9.3-0.087
						C246.771,312.894,243.142,312.831,243.142,312.831z"/>
				</g>
				<g>
					<path style="fill:#401A4C;" d="M243.142,318.583c0,0,3.63-0.064,9.074-0.159c2.722-0.025,5.898-0.055,9.3-0.087
						c3.403-0.012,7.032-0.025,10.661-0.038c3.629,0.013,7.259,0.025,10.661,0.037c3.403,0.032,6.578,0.061,9.301,0.086
						c5.444,0.096,9.074,0.159,9.074,0.159s-3.629,0.064-9.074,0.16c-2.722,0.025-5.898,0.055-9.301,0.086
						c-3.402,0.012-7.032,0.025-10.661,0.037c-3.629-0.013-7.259-0.026-10.661-0.038c-3.403-0.032-6.578-0.061-9.3-0.087
						C246.771,318.646,243.142,318.583,243.142,318.583z"/>
				</g>
				<g>
					<path style="fill:#401A4C;" d="M243.142,324.335c0,0,3.63-0.063,9.074-0.159c2.722-0.025,5.898-0.055,9.3-0.087
						c3.403-0.012,7.032-0.025,10.661-0.038c3.629,0.013,7.259,0.025,10.661,0.037c3.403,0.031,6.578,0.061,9.301,0.086
						c5.444,0.096,9.074,0.159,9.074,0.159s-3.629,0.064-9.074,0.16c-2.722,0.025-5.898,0.055-9.301,0.086
						c-3.402,0.012-7.032,0.025-10.661,0.037c-3.629-0.013-7.259-0.026-10.661-0.038c-3.403-0.032-6.578-0.061-9.3-0.087
						C246.771,324.399,243.142,324.335,243.142,324.335z"/>
				</g>
				<g>
					<path style="fill:#401A4C;" d="M243.142,330.087c0,0,3.63-0.064,9.074-0.159c2.722-0.025,5.898-0.055,9.3-0.087
						c3.403-0.012,7.032-0.025,10.661-0.038c3.629,0.013,7.259,0.025,10.661,0.037c3.403,0.032,6.578,0.061,9.301,0.086
						c5.444,0.096,9.074,0.16,9.074,0.16s-3.629,0.064-9.074,0.159c-2.722,0.025-5.898,0.055-9.301,0.086
						c-3.402,0.012-7.032,0.025-10.661,0.037c-3.629-0.013-7.259-0.026-10.661-0.038c-3.403-0.032-6.578-0.061-9.3-0.087
						C246.771,330.151,243.142,330.087,243.142,330.087z"/>
				</g>
				<g>
					<path style="fill:#401A4C;" d="M243.142,335.84c0,0,3.63-0.064,9.074-0.159c2.722-0.025,5.898-0.055,9.3-0.087
						c3.403-0.012,7.032-0.025,10.661-0.038c3.629,0.013,7.259,0.025,10.661,0.037c3.403,0.032,6.578,0.061,9.301,0.086
						c5.444,0.096,9.074,0.16,9.074,0.16s-3.629,0.064-9.074,0.16c-2.722,0.025-5.898,0.055-9.301,0.086
						c-3.402,0.012-7.032,0.025-10.661,0.037c-3.629-0.013-7.259-0.026-10.661-0.038c-3.403-0.032-6.578-0.061-9.3-0.087
						C246.771,335.903,243.142,335.84,243.142,335.84z"/>
				</g>
			</g>
		</g>
		<rect x="167.574" y="348.128" style="fill:#E7E8EB;" width="136.502" height="22.747"/>
		<g>
			<g>
				<path style="fill:#401A4C;" d="M172.272,355.711c0,0,3.63-0.064,9.074-0.159c2.722-0.025,5.898-0.055,9.3-0.087
					c3.403-0.012,7.032-0.025,10.661-0.038c3.629,0.013,7.259,0.025,10.661,0.037c3.403,0.032,6.578,0.061,9.3,0.086
					c5.444,0.096,9.074,0.16,9.074,0.16s-3.629,0.064-9.074,0.159c-2.722,0.025-5.898,0.055-9.3,0.086
					c-3.402,0.012-7.032,0.025-10.661,0.037c-3.629-0.013-7.259-0.026-10.661-0.038c-3.403-0.032-6.578-0.061-9.3-0.086
					C175.901,355.774,172.272,355.711,172.272,355.711z"/>
			</g>
			<g>
				<path style="fill:#401A4C;" d="M172.272,361.463c0,0,3.63-0.064,9.074-0.159c2.722-0.025,5.898-0.055,9.3-0.087
					c3.403-0.012,7.032-0.025,10.661-0.038c3.629,0.013,7.259,0.025,10.661,0.037c3.403,0.032,6.578,0.061,9.3,0.086
					c5.444,0.096,9.074,0.16,9.074,0.16s-3.629,0.064-9.074,0.159c-2.722,0.025-5.898,0.055-9.3,0.086
					c-3.402,0.012-7.032,0.025-10.661,0.037c-3.629-0.013-7.259-0.026-10.661-0.038c-3.403-0.032-6.578-0.061-9.3-0.087
					C175.901,361.527,172.272,361.463,172.272,361.463z"/>
			</g>
			<g>
				<path style="fill:#401A4C;" d="M172.272,367.215c0,0,3.63-0.064,9.074-0.159c2.722-0.025,5.898-0.055,9.3-0.086
					c3.403-0.012,7.032-0.025,10.661-0.038c3.629,0.013,7.259,0.025,10.661,0.037c3.403,0.032,6.578,0.061,9.3,0.086
					c5.444,0.096,9.074,0.16,9.074,0.16s-3.629,0.064-9.074,0.16c-2.722,0.025-5.898,0.055-9.3,0.086
					c-3.402,0.012-7.032,0.025-10.661,0.037c-3.629-0.013-7.259-0.026-10.661-0.038c-3.403-0.032-6.578-0.061-9.3-0.087
					C175.901,367.279,172.272,367.215,172.272,367.215z"/>
			</g>
			<g>
				<path style="fill:#401A4C;" d="M240.272,355.711c0,0,3.629-0.064,9.074-0.159c2.722-0.025,5.898-0.055,9.3-0.087
					c3.402-0.012,7.032-0.025,10.661-0.038c3.629,0.013,7.259,0.025,10.661,0.037c3.403,0.032,6.578,0.061,9.3,0.086
					c5.444,0.096,9.074,0.16,9.074,0.16s-3.629,0.064-9.074,0.159c-2.722,0.025-5.898,0.055-9.3,0.086
					c-3.403,0.012-7.032,0.025-10.661,0.037c-3.629-0.013-7.259-0.026-10.661-0.038c-3.403-0.032-6.578-0.061-9.3-0.086
					C243.901,355.774,240.272,355.711,240.272,355.711z"/>
			</g>
			<g>
				<path style="fill:#401A4C;" d="M240.272,361.463c0,0,3.629-0.064,9.074-0.159c2.722-0.025,5.898-0.055,9.3-0.087
					c3.402-0.012,7.032-0.025,10.661-0.038c3.629,0.013,7.259,0.025,10.661,0.037c3.403,0.032,6.578,0.061,9.3,0.086
					c5.444,0.096,9.074,0.16,9.074,0.16s-3.629,0.064-9.074,0.159c-2.722,0.025-5.898,0.055-9.3,0.086
					c-3.403,0.012-7.032,0.025-10.661,0.037c-3.629-0.013-7.259-0.026-10.661-0.038c-3.403-0.032-6.578-0.061-9.3-0.087
					C243.901,361.527,240.272,361.463,240.272,361.463z"/>
			</g>
			<g>
				<path style="fill:#401A4C;" d="M240.272,367.215c0,0,3.629-0.064,9.074-0.159c2.722-0.025,5.898-0.055,9.3-0.086
					c3.402-0.012,7.032-0.025,10.661-0.038c3.629,0.013,7.259,0.025,10.661,0.037c3.403,0.032,6.578,0.061,9.3,0.086
					c5.444,0.096,9.074,0.16,9.074,0.16s-3.629,0.064-9.074,0.16c-2.722,0.025-5.898,0.055-9.3,0.086
					c-3.403,0.012-7.032,0.025-10.661,0.037c-3.629-0.013-7.259-0.026-10.661-0.038c-3.403-0.032-6.578-0.061-9.3-0.087
					C243.901,367.279,240.272,367.215,240.272,367.215z"/>
			</g>
		</g>
		<g>
			<path style="fill:#401A4C;" d="M221.453,178.726c0,0,1.805-0.09,4.512-0.159c1.354-0.025,2.933-0.055,4.625-0.087
				c1.692-0.012,3.497-0.025,5.302-0.038c1.805,0.013,3.61,0.025,5.302,0.037c1.692,0.009,3.271,0.063,4.625,0.086
				c2.708,0.068,4.512,0.16,4.512,0.16s-1.805,0.091-4.512,0.16c-1.354,0.023-2.933,0.077-4.625,0.086
				c-1.692,0.012-3.497,0.024-5.302,0.037c-1.805-0.013-3.61-0.026-5.302-0.038c-1.692-0.032-3.271-0.061-4.625-0.087
				C223.258,178.816,221.453,178.726,221.453,178.726z"/>
		</g>
		<g>
			<path style="fill:#401A4C;" d="M221.453,182.125c0,0,1.805-0.09,4.512-0.159c1.354-0.025,2.933-0.055,4.625-0.087
				c1.692-0.012,3.497-0.025,5.302-0.038c1.805,0.013,3.61,0.025,5.302,0.037c1.692,0.009,3.271,0.063,4.625,0.086
				c2.708,0.068,4.512,0.16,4.512,0.16s-1.805,0.091-4.512,0.16c-1.354,0.023-2.933,0.077-4.625,0.086
				c-1.692,0.012-3.497,0.025-5.302,0.037c-1.805-0.013-3.61-0.026-5.302-0.038c-1.692-0.032-3.271-0.061-4.625-0.086
				C223.258,182.215,221.453,182.125,221.453,182.125z"/>
		</g>
		<path style="fill:#FFFFFF;" d="M305.813,135.918h52.005c0,0-4.79-17.841-16.765-6.331
			C329.078,141.098,317.788,96.783,305.813,135.918z"/>
		<path style="fill:#FFFFFF;" d="M239.764,108.626h43.586c0,0,1.276-8.207-8.936-4.924c-10.212,3.283-2.188-10.76-10.76-7.112
			c-8.571,3.647-4.741-4.195-9.665-3.283C249.065,94.219,239.764,96.408,239.764,108.626z"/>
		<path style="fill:#FFFFFF;" d="M177.314,132.073h61.625c0,0-4.556-11.51-14.387-5.755c-9.831,5.755-9.352-13.908-22.18-9.591
			c-12.828,4.316-10.431-8.392-20.741-2.877C171.319,119.365,167.723,132.073,177.314,132.073z"/>
		<g>
			<path style="fill:#004D79;" d="M85.42,372.09c0,0,6.309-0.52,13.18-2.508c6.865-2.012,16.019-4.696,25.173-7.379
				c2.288-0.672,4.576-1.345,6.829-2.007c5.348-1.572,10.053-3.513,15.588-1.05c5.891,2.621,8.886,8.157,11.742,14.626
				c0.502,1.136,0.171,2.546-0.738,3.148c-0.909,0.603-2.052,0.171-2.554-0.966c-0.017-0.038-0.035-0.082-0.05-0.121
				c-2.399-6.182-5.136-11.893-11.018-13.408c-6.114-1.575-13.109,2.038-18.99,3.757c-9.155,2.676-18.31,5.353-25.177,7.36
				c-6.861,2.032-13.165,2.646-13.165,2.646L85.42,372.09z"/>
			<polygon style="fill:#006490;" points="85.42,372.09 103.591,368.119 103.964,372.211 99.082,374.545 97.25,378.866 
				86.278,379.411 			"/>
		</g>
		<g>
			<path style="fill:#A2BDD6;" d="M162.371,363.441c0,0,8.253-17.044,5.138-18.227c-3.219-1.222,3.702-9.957-0.358-14.918
				c-4.383-5.355,3.548-19.29-1.087-21.338c-4.84-2.139,3.288-26.158-3.676-27.727c-7.283-1.641-11.296,11.684-11.302,26.917
				c-0.005,13.43-9.838,10.852,0.098,20.355c8.675,8.296-3.27,13.635,2.453,20.237c5.176,5.97-5.367,10.783,0.173,18.836
				C156.789,365.926,162.371,363.441,162.371,363.441z"/>
			<path style="fill:#A2BDD6;" d="M157.097,350.959c0,0-2.925-20.078,6.431-23.919c9.863-4.049,5.084-26.997,13.237-29.788
				c8.415-2.881,6.218,14.587,0.999,25.323c-4.58,9.42,7.003,6.56-0.29,18.08c-6.234,9.848-4.137,21.162-7.757,24.974
				c-3.387,3.567-13.319,4.655-18.09,2.894c-4.933-1.821-13.945-15.827-14.709-20.293c-0.822-4.8-12.21-20.405-10.537-27.775
				c1.848-8.139-10.884-20.963-1.604-26.967c9.932-6.426,13.1,18.623,16.943,20.609c3.751,1.939,12.078,10.506,7.769,19.882
				C145.68,342.263,157.097,350.959,157.097,350.959z"/>
			<polygon style="fill:#FF8554;" points="168.966,404.423 147.343,404.423 142.87,374.102 173.439,374.102 			"/>
			<path style="fill:#FF9677;" d="M175.676,370.012c0-1.155-7.845-2.092-17.521-2.092s-17.522,0.937-17.522,2.092
				c0,0.853,0,7.327,0,8.18c0,1.155,7.845,2.092,17.522,2.092s17.521-0.937,17.521-2.092
				C175.676,377.339,175.676,370.865,175.676,370.012z"/>
			<ellipse style="fill:#FF8554;" cx="158.155" cy="370.012" rx="17.522" ry="2.092"/>
			<path style="fill:#B8CFEC;" d="M153.167,370.498h9.196c0,0,4.549-7.534,0.28-7.308c-4.251,0.226,1.903-11.472-1.329-10.925
				c-3.204,0.542,4.977-21.012-2.542-19.538c-7.367,1.444-1.88-20.412-8.336-18.531c-6.31,1.839-1.031,14.481-5.642,17.094
				c-4.45,2.522,5.817,12.231,3.816,14.681c-1.928,2.361,8.693,14.196,4.079,14.672
				C148.113,361.115,149.209,367.754,153.167,370.498z"/>
			<g>
				<path style="fill:#401A4C;" d="M151.204,322.574c0,0,0.232,3.028,0.654,7.559c0.196,2.267,0.477,4.907,0.78,7.733
					c0.303,2.827,0.671,5.837,1.105,8.837c0.406,3.006,0.878,5.998,1.382,8.795c0.506,2.796,1.006,5.402,1.498,7.622
					c0.494,2.22,0.914,4.069,1.242,5.356c0.332,1.286,0.521,2.021,0.521,2.021s-0.223-0.726-0.613-1.996
					c-0.374-1.274-0.918-3.095-1.46-5.309c-0.538-2.214-1.145-4.805-1.671-7.605c-0.528-2.799-1.03-5.8-1.46-8.807
					c-0.41-3.011-0.753-6.031-1.033-8.865c-0.282-2.834-0.458-5.487-0.608-7.759c-0.148-2.273-0.21-4.17-0.264-5.498
					C151.231,323.333,151.204,322.574,151.204,322.574z"/>
			</g>
			<path style="fill:#B8CFEC;" d="M166.852,370.498c0,0,11.337-7.991,9.761-9.854c-1.629-1.926,5.906-5.066,5.066-9.685
				c-0.907-4.987,9.119-11.1,6.877-14.057c-2.342-3.088,11.391-15.592,7.486-19.069c-4.084-3.636-11.384,3.476-16.795,13.234
				c-4.77,8.603-10.155,3.461-7.162,13.076c2.613,8.394-6.935,7.575-5.611,13.836c1.197,5.662-7.266,5.004-6.575,12.129
				C162.394,370.109,166.852,370.498,166.852,370.498z"/>
			<g>
				<path style="fill:#401A4C;" d="M188.952,325.263c0,0-1.318,2.966-3.419,7.358c-1.064,2.189-2.298,4.747-3.684,7.456
					c-1.39,2.707-2.882,5.59-4.425,8.447c-1.551,2.852-3.153,5.677-4.689,8.305c-0.75,1.325-1.544,2.566-2.27,3.757
					c-0.719,1.196-1.461,2.289-2.114,3.316c-0.645,1.033-1.307,1.935-1.871,2.747c-0.561,0.815-1.066,1.514-1.506,2.073
					c-0.86,1.13-1.352,1.775-1.352,1.775s0.463-0.666,1.274-1.831c0.414-0.576,0.889-1.294,1.414-2.132
					c0.526-0.837,1.146-1.762,1.772-2.804c0.627-1.042,1.341-2.148,2.03-3.359c0.699-1.205,1.436-2.475,2.198-3.79
					c1.513-2.635,3.088-5.469,4.617-8.328c1.563-2.841,3.077-5.708,4.487-8.402c1.403-2.697,2.713-5.215,3.836-7.373
					C187.47,328.15,188.952,325.263,188.952,325.263z"/>
			</g>
			<path style="fill:#B8CFEC;" d="M148.71,370.498c0,0-10.779-7.991-9.324-9.854c1.503-1.926-5.628-5.066-4.905-9.685
				c0.78-4.987-8.738-11.1-6.673-14.057c2.157-3.088-10.94-15.592-7.319-19.069c3.787-3.636,10.757,3.476,15.988,13.234
				c4.612,8.603,9.601,3.461,6.926,13.076c-2.335,8.394,6.633,7.575,5.48,13.836c-1.043,5.662,6.906,5.004,6.36,12.129
				C152.897,370.109,148.71,370.498,148.71,370.498z"/>
			<g>
				<path style="fill:#401A4C;" d="M127.265,325.263c0,0,1.436,2.88,3.591,7.201c1.087,2.154,2.355,4.668,3.714,7.361
					c1.364,2.69,2.829,5.554,4.34,8.393c1.477,2.857,2.998,5.691,4.46,8.328c0.736,1.315,1.447,2.587,2.121,3.793
					c0.665,1.212,1.352,2.322,1.958,3.365c0.604,1.044,1.2,1.974,1.708,2.813c0.506,0.84,0.963,1.562,1.363,2.141
					c0.782,1.171,1.229,1.84,1.229,1.84s-0.475-0.65-1.307-1.786c-0.425-0.563-0.913-1.265-1.456-2.083
					c-0.546-0.815-1.185-1.722-1.808-2.757c-0.632-1.029-1.348-2.127-2.043-3.324c-0.702-1.193-1.469-2.437-2.193-3.761
					c-1.485-2.63-3.033-5.455-4.532-8.305c-1.49-2.855-2.933-5.734-4.277-8.437c-1.34-2.705-2.533-5.258-3.561-7.442
					C128.539,328.22,127.265,325.263,127.265,325.263z"/>
			</g>
		</g>
		<g>
			
				<linearGradient id="SVGID_00000073715761566212422190000003408393518693023641_" gradientUnits="userSpaceOnUse" x1="325.9945" y1="386.206" x2="325.9945" y2="403.6357">
				<stop  offset="0" style="stop-color:#FF989D"/>
				<stop  offset="1" style="stop-color:#FF8288"/>
			</linearGradient>
			<path style="fill:url(#SVGID_00000073715761566212422190000003408393518693023641_);" d="M400.555,392.739
				c0.792,3.641-32.724,10.9-74.56,10.897c-41.835,0.002-75.354-7.256-74.56-10.897c0.837-3.642,34.36-6.534,74.56-6.533
				C366.194,386.207,399.716,389.099,400.555,392.739z"/>
			<path style="fill:#FF989D;" d="M400.555,392.739c0.792,3.641-32.724,6.648-74.56,6.644c-41.835,0.002-75.354-3.003-74.56-6.644
				c0.837-3.642,34.36-6.534,74.56-6.533C366.194,386.207,399.716,389.099,400.555,392.739z"/>
			<path style="fill:none;stroke:#FFFFFF;stroke-width:1.1339;stroke-miterlimit:10;" d="M390.619,392.752
				c0.687,2.776-28.363,5.07-64.624,5.067c-36.26,0.002-65.312-2.291-64.624-5.067c0.725-2.778,29.781-4.983,64.624-4.982
				C360.837,387.771,389.892,389.976,390.619,392.752z"/>
			
				<linearGradient id="SVGID_00000150080513190881245560000002072042362118272901_" gradientUnits="userSpaceOnUse" x1="325.9945" y1="389.4015" x2="325.9945" y2="396.1879">
				<stop  offset="0" style="stop-color:#FF989D"/>
				<stop  offset="1" style="stop-color:#FF8288"/>
			</linearGradient>
			<path style="fill:url(#SVGID_00000150080513190881245560000002072042362118272901_);" d="M364.393,392.766
				c0.408,1.875-16.853,3.424-38.399,3.422c-21.545,0.001-38.807-1.547-38.398-3.422c0.431-1.876,17.695-3.365,38.398-3.365
				C346.697,389.402,363.961,390.891,364.393,392.766z"/>
			<path style="fill:#FF989D;" d="M372.383,384.606c-0.755,0-1.508-0.063-2.257-0.19c-8.514-1.456-14.461-10.875-14.461-22.903
				c0-15.179,9.437-32.093,22.979-32.093c5.341,0,9.964,2.673,13.017,7.526c4.608,7.324,5.139,18.794,1.352,29.222v0.001
				C388.994,377.238,380.585,384.606,372.383,384.606z M378.645,337.151c-8.921,0-15.84,13.096-15.84,24.362
				c0,8.01,3.548,14.43,8.435,15.267c4.675,0.795,11.57-3.64,15.13-13.441v0.001c2.902-7.993,2.658-16.85-0.608-22.04
				C384.03,338.546,381.635,337.151,378.645,337.151z"/>
			<path style="fill:#FF989D;" d="M365.299,324.864c-0.443-1.869-18.113-3.353-39.304-3.352
				c-21.191,0.001-38.862,1.484-39.304,3.352c-0.612,0.2-2.942,16.824,2.609,33.449c4.321,16.625,16.522,33.25,16.56,33.449
				c1.554,1.868,10.604,3.352,20.135,3.352c9.533-0.001,18.581-1.483,20.135-3.352c0.037-0.2,12.239-16.825,16.56-33.449
				C368.241,341.688,365.911,325.063,365.299,324.864z"/>
			<path style="fill:#FFFFFF;" d="M285.69,333.994c-0.033,1.56,0.056,3.364,0.354,5.32c5.299,2.077,22.215,3.644,39.95,3.645
				c17.738-0.001,34.652-1.567,39.951-3.645c0.298-1.955,0.387-3.76,0.353-5.32c-4.856,2.151-22.148,3.792-40.305,3.793
				C307.84,337.787,290.547,336.145,285.69,333.994z"/>
			
				<linearGradient id="SVGID_00000121980531464801865000000013602771722451553448_" gradientUnits="userSpaceOnUse" x1="325.9945" y1="321.4319" x2="325.9945" y2="328.3784">
				<stop  offset="0" style="stop-color:#FF989D"/>
				<stop  offset="1" style="stop-color:#FF8288"/>
			</linearGradient>
			<path style="fill:url(#SVGID_00000121980531464801865000000013602771722451553448_);" d="M365.299,324.876
				c0.418,1.919-17.25,3.504-39.304,3.503c-22.053,0.001-39.723-1.583-39.304-3.503c0.441-1.92,18.113-3.445,39.304-3.444
				C347.186,321.433,364.857,322.957,365.299,324.876z"/>
			<path style="fill:#A2BDD6;" d="M264.358,375.525c3.435-0.622,7.858-0.368,22.847,6.588c10.037,4.658,26.979,13.329,36.044,18.735
				c6.403-0.039,15.335,1.904,21.89,4.946c7.941,3.685,9.502,6.62,4.511,10.717c-4.909,4.03-15.344,4.715-26.447-1.91
				c-6.246-3.727-9.105-10.974-6.176-12.626c-12.78-4.732-32.217-12.951-42.254-17.61
				C259.784,377.409,260.922,376.147,264.358,375.525z"/>
			<path style="fill:#D3DEEC;" d="M264.358,375.525c3.435-0.622,7.858-0.368,22.847,6.588c9.522,4.419,25.259,12.45,34.588,17.878
				c0.909,0.529,1.907,0.842,2.938,0.881c6.248,0.234,14.345,2.108,20.408,4.922c7.941,3.685,9.366,7.581,3.19,8.701
				c-6.177,1.119-17.628-0.96-25.569-4.646c-4.006-1.859-6.35-3.77-6.9-5.351c-0.686-1.976-1.905-3.673-3.741-4.383
				c-12.442-4.811-28.524-11.655-37.346-15.749C259.784,377.409,260.922,376.147,264.358,375.525z"/>
			<g>
				<path style="fill:#401A4C;" d="M366.307,334.7c0,0,0.201,2.757-0.107,6.889c-0.072,1.032-0.197,2.147-0.323,3.326
					c-0.163,1.174-0.291,2.421-0.54,3.692c-0.113,0.637-0.227,1.285-0.344,1.941c-0.138,0.652-0.279,1.311-0.42,1.976
					c-0.26,1.335-0.632,2.666-0.961,4.007c-0.344,1.338-0.79,2.647-1.173,3.95c-0.413,1.295-0.884,2.547-1.305,3.771
					c-0.433,1.219-0.947,2.363-1.39,3.462c-0.431,1.105-0.942,2.105-1.373,3.046c-0.448,0.933-0.822,1.805-1.241,2.535
					c-0.402,0.738-0.752,1.381-1.04,1.911c-0.576,1.058-0.905,1.663-0.905,1.663s0.298-0.621,0.821-1.707
					c0.261-0.543,0.578-1.201,0.941-1.957c0.378-0.748,0.707-1.638,1.134-2.576c0.402-0.949,0.883-1.958,1.281-3.071
					c0.41-1.108,0.882-2.26,1.311-3.474c0.407-1.221,0.864-2.471,1.263-3.763c0.37-1.3,0.799-2.605,1.131-3.938
					c0.34-1.33,0.723-2.65,0.993-3.974c0.147-0.66,0.292-1.314,0.436-1.961c0.121-0.651,0.241-1.294,0.359-1.927
					c0.472-2.531,0.816-4.912,1.03-6.962c0.103-1.026,0.2-1.966,0.259-2.802c0.077-0.835,0.097-1.566,0.133-2.167
					C366.321,335.389,366.307,334.7,366.307,334.7z"/>
			</g>
			<path style="fill:#006490;" d="M361.319,407.943c-9.731-18.95-0.635-16.066,4.138-8.239c-1.695-43.08,12.484-14.419,9.199-2.06
				c14.976-41.02,17.367-8.651,7.231,2.06c19.538-17.714,18.376-2.472,5.261,6.591C374.034,415.358,361.319,407.943,361.319,407.943
				"/>
		</g>
		<g>
			<g>
				<path style="fill:#004D79;" d="M128.613,395.558l3.5-1.916c-1.236-2.967-4.233-5.454-7.459-6.189
					c-2.333-0.531-4.384-0.033-5.775,1.403l2.595,3.305c0.446-0.46,1.353-0.589,2.423-0.345
					C125.886,392.268,127.913,393.877,128.613,395.558z"/>
			</g>
			<g>
				<path style="fill:#004D79;" d="M177.138,396.546c0,0,3.098-1.325,9.968-3.313c6.865-2.012,16.019-4.696,25.173-7.379
					c2.288-0.672,4.576-1.345,6.829-2.007c5.348-1.572,10.053-3.513,15.588-1.05c5.891,2.621,8.886,8.157,11.742,14.626
					c0.502,1.136,0.171,2.546-0.738,3.149c-0.909,0.603-2.053,0.171-2.554-0.966c-0.017-0.038-0.035-0.082-0.05-0.121
					c-2.399-6.182-5.136-11.893-11.018-13.408c-6.114-1.575-13.109,2.038-18.99,3.757c-9.155,2.676-18.31,5.353-25.177,7.36
					c-6.861,2.032-9.954,3.387-9.954,3.387L177.138,396.546z"/>
				<polygon style="fill:#006490;" points="177.138,396.546 192.098,391.77 192.471,395.862 187.589,398.196 185.757,402.517 
					178.509,405.68 				"/>
			</g>
			<path style="fill:#FFFFFF;" d="M89.84,374.722c0,0,22.584-3.846,30.528,13.93C120.329,417.197,89.722,413.988,89.84,374.722z"/>
			<path style="fill:#FFFFFF;" d="M135.231,387.999c7.601-2.179,21.817-3.615,37.231,8.242c5.214,32.804-34.908,36.24-42.043,1.479
				C129.524,393.363,131.721,389.005,135.231,387.999z"/>
			<g>
				<path style="fill:#004D79;" d="M106.229,409.064c-8.108-1.203-16.74-11.045-17.746-30.321c-0.082-1.567,0.381-3.115,1.271-4.245
					c0.837-1.064,1.972-1.684,3.194-1.744c5.77-0.283,16.563,0.386,23.978,8.056c4.003,4.141,5.474,10.717,3.747,16.752
					c-2.072,7.24-6.957,11.631-12.721,11.631C107.385,409.192,106.811,409.15,106.229,409.064z M93.072,376.086
					c-0.437,0.021-0.848,0.251-1.159,0.646c-0.37,0.471-0.563,1.131-0.527,1.812c0.907,17.374,8.296,26.187,15.216,27.213
					c5.128,0.756,9.459-2.778,11.307-9.234c1.368-4.783,0.218-9.978-2.932-13.236c-5.894-6.097-14.371-7.249-19.931-7.249
					C94.337,376.037,93.675,376.056,93.072,376.086z"/>
			</g>
			<g>
				<path style="fill:#004D79;" d="M128.004,390.378l-0.066-1.109l0.867-0.497c0.789-0.453,19.568-10.899,41.671,4.064
					c2.234,1.513,3.715,4.327,3.864,7.344c0.764,15.487-8.468,23.106-17.955,23.788c-0.502,0.036-1.006,0.054-1.51,0.054
					C142.285,424.022,129.348,412.771,128.004,390.378z M130.989,391.317c1.647,20.327,13.816,30.134,25.214,29.322
					c8.051-0.579,15.884-7.071,15.233-20.271c-0.095-1.92-1.029-3.706-2.439-4.66c-8.528-5.773-16.602-7.476-23.161-7.476
					C138.483,388.232,133.035,390.372,130.989,391.317z"/>
			</g>
			<polygon style="fill:#004D79;" points="172.301,394.472 177.656,396.305 178.509,405.68 172.44,407.863 			"/>
			<polygon style="fill:#004D79;" points="91.216,373.264 85.42,372.09 86.278,379.411 91.093,382.347 			"/>
		</g>
	</g>
</g>
<g id="DESIGNED_BY_FREEPIK">
	<g>
		<g id="XMLID_1_">
			<g id="XMLID_20_">
				<path id="XMLID_28_" style="fill:#1D262D;" d="M260.104,465.465c-0.432,0.443-0.803,0.931-1.108,1.453l-0.465-0.241
					c-0.067-0.298-0.349-0.503-0.659-0.466c-0.331,0.039-0.568,0.339-0.529,0.67s0.339,0.568,0.67,0.529
					c0.065-0.008,0.127-0.026,0.184-0.052l0.451,0.234c-0.251,0.554-0.433,1.139-0.539,1.744l0.746,0.132
					c0.23-1.306,0.85-2.507,1.792-3.473L260.104,465.465z"/>
				<path id="XMLID_27_" style="fill:#1D262D;" d="M265.592,463.163c-0.171,0-0.341,0.006-0.51,0.017l-0.074-0.626
					c0.188-0.149,0.296-0.389,0.266-0.645c-0.046-0.393-0.402-0.674-0.795-0.628s-0.674,0.402-0.628,0.795
					c0.03,0.254,0.189,0.461,0.405,0.564l0.073,0.624c-0.714,0.116-1.403,0.332-2.06,0.646l0.327,0.684
					c0.934-0.447,1.942-0.673,2.995-0.673c0.496,0,0.993,0.053,1.475,0.158l0.161-0.741
					C266.693,463.222,266.142,463.163,265.592,463.163z"/>
				<path id="XMLID_26_" style="fill:#1D262D;" d="M272.194,465.711c0.331-0.04,0.566-0.341,0.525-0.672
					c-0.04-0.331-0.341-0.566-0.672-0.526c-0.309,0.038-0.535,0.304-0.53,0.609l-0.416,0.363c-0.418-0.43-0.89-0.813-1.408-1.139
					l-0.404,0.641c1.134,0.715,2.021,1.726,2.563,2.925l0.691-0.313c-0.251-0.554-0.568-1.072-0.942-1.545l0.402-0.351
					C272.065,465.716,272.129,465.719,272.194,465.711z"/>
				<path id="XMLID_25_" style="fill:#1D262D;" d="M265.044,473.372c-0.386,0.023-0.775,0.035-1.157,0.035
					c-0.88,0-1.733-0.061-2.478-0.179c-0.39-0.062-0.846-0.155-1.27-0.292c1.046,1.861,3.069,3.125,5.388,3.125
					c2.855,0,5.262-1.916,5.95-4.504c-0.682,0.449-1.505,0.825-2.459,1.123C267.839,473.047,266.464,473.286,265.044,473.372z"/>
				<path id="XMLID_21_" style="fill:#1D262D;" d="M265.592,464.68c-3.352,0-6.08,2.666-6.08,5.943c0,0.426,0.046,0.849,0.137,1.261
					c0.674,0.483,2.706,0.89,5.348,0.731c2.879-0.173,5.297-0.957,6.672-2.159c-0.005-0.195-0.021-0.39-0.045-0.582
					C271.244,466.913,268.65,464.68,265.592,464.68z M263.432,471.194c-1.02,0-1.85-0.83-1.85-1.85c0-1.02,0.83-1.85,1.85-1.85
					c1.02,0,1.85,0.83,1.85,1.85C265.282,470.365,264.452,471.194,263.432,471.194z M268.17,470.286c-0.75,0-1.36-0.61-1.36-1.36
					s0.61-1.361,1.36-1.361c0.75,0,1.361,0.61,1.361,1.361S268.92,470.286,268.17,470.286z"/>
			</g>
			<path id="XMLID_18_" style="fill:#1D262D;" d="M281.595,466.547c-0.295-0.116-0.806-0.309-1.382-0.237
				c-0.551,0.069-0.844,0.341-0.844,1.007v0.866h2.228v1.717h-2.228v5.455h-1.932v-5.455h-1.34v-1.717h1.34v-0.888
				c0-1.68,0.896-2.783,2.568-2.783c0.642,0,1.157,0.122,1.59,0.308L281.595,466.547z"/>
			<path id="XMLID_16_" style="fill:#1D262D;" d="M286.298,469.879c-0.177-0.03-0.358-0.046-0.526-0.046
				c-0.896,0-1.51,0.548-1.51,1.614v3.908h-1.932v-7.172h1.873v0.785c0.451-0.673,1.14-0.977,2.021-0.977
				c0.414,0,0.848,0.128,1.094,0.337L286.298,469.879z"/>
			<path id="XMLID_13_" style="fill:#1D262D;" d="M293.965,471.757c0,0.222-0.015,0.489-0.037,0.651h-5.085
				c0.207,1.036,0.933,1.488,1.843,1.488c0.622,0,1.295-0.252,1.813-0.688l1.132,1.243c-0.814,0.748-1.85,1.088-3.057,1.088
				c-2.198,0-3.723-1.495-3.723-3.753c0-2.258,1.48-3.797,3.627-3.797C292.544,467.99,293.958,469.522,293.965,471.757z
				 M288.851,471.091h3.175c-0.177-0.918-0.733-1.436-1.562-1.436C289.554,469.655,289.021,470.203,288.851,471.091z"/>
			<path id="XMLID_10_" style="fill:#1D262D;" d="M301.618,471.757c0,0.222-0.015,0.489-0.037,0.651h-5.085
				c0.207,1.036,0.932,1.488,1.843,1.488c0.622,0,1.295-0.252,1.813-0.688l1.132,1.243c-0.814,0.748-1.85,1.088-3.057,1.088
				c-2.198,0-3.723-1.495-3.723-3.753c0-2.258,1.48-3.797,3.627-3.797C300.197,467.99,301.611,469.522,301.618,471.757z
				 M296.504,471.091h3.175c-0.178-0.918-0.733-1.436-1.562-1.436C297.207,469.655,296.674,470.203,296.504,471.091z"/>
			<path id="XMLID_7_" style="fill:#1D262D;" d="M309.964,471.764c0,2.154-1.495,3.775-3.471,3.775
				c-0.962,0-1.643-0.378-2.109-0.933v3.708h-1.924v-10.133h1.887v0.792c0.466-0.585,1.155-0.984,2.139-0.984
				C308.469,467.99,309.964,469.61,309.964,471.764z M304.287,471.764c0,1.132,0.747,1.976,1.843,1.976
				c1.14,0,1.85-0.881,1.85-1.976c0-1.095-0.71-1.976-1.85-1.976C305.035,469.788,304.287,470.632,304.287,471.764z"/>
			<path id="XMLID_4_" style="fill:#1D262D;" d="M313.068,465.836c0,0.696-0.54,1.229-1.236,1.229c-0.696,0-1.229-0.533-1.229-1.229
				c0-0.696,0.533-1.243,1.229-1.243C312.527,464.592,313.068,465.14,313.068,465.836z M312.809,475.354h-1.932v-7.172h1.932
				V475.354z"/>
			<path id="XMLID_2_" style="fill:#1D262D;" d="M316.032,470.736l2.702-2.554h2.368l-3.479,3.375l3.501,3.797h-2.376l-2.716-2.901
				v2.901H314.1v-10.658h1.932V470.736z"/>
		</g>
		<g>
			<path style="fill:#1D262D;" d="M184.412,475.289v-1.055c-0.527,0.718-1.391,1.23-2.387,1.23c-1.846,0-3.149-1.406-3.149-3.706
				c0-2.256,1.289-3.721,3.149-3.721c0.952,0,1.816,0.469,2.387,1.245v-3.765h1.099v9.77H184.412z M184.412,473.37v-3.208
				c-0.395-0.615-1.245-1.143-2.124-1.143c-1.421,0-2.27,1.172-2.27,2.739c0,1.567,0.85,2.724,2.27,2.724
				C183.168,474.483,184.017,473.986,184.412,473.37z"/>
			<path style="fill:#1D262D;" d="M186.932,471.744c0-2.051,1.465-3.706,3.486-3.706c2.139,0,3.398,1.67,3.398,3.794v0.279h-5.727
				c0.088,1.333,1.025,2.446,2.549,2.446c0.805,0,1.626-0.322,2.182-0.894l0.527,0.718c-0.703,0.703-1.655,1.084-2.812,1.084
				C188.44,475.465,186.932,473.956,186.932,471.744z M190.403,468.947c-1.509,0-2.256,1.274-2.314,2.358h4.643
				C192.718,470.25,192.015,468.947,190.403,468.947z"/>
			<path style="fill:#1D262D;" d="M194.607,474.351l0.571-0.791c0.469,0.542,1.362,1.011,2.329,1.011c1.084,0,1.67-0.513,1.67-1.216
				c0-1.714-4.38-0.659-4.38-3.281c0-1.098,0.952-2.036,2.636-2.036c1.201,0,2.051,0.454,2.622,1.026l-0.513,0.762
				c-0.424-0.513-1.201-0.894-2.109-0.894c-0.967,0-1.567,0.483-1.567,1.113c0,1.552,4.38,0.527,4.38,3.281
				c0,1.187-0.952,2.138-2.783,2.138C196.306,475.465,195.325,475.113,194.607,474.351z"/>
			<path style="fill:#1D262D;" d="M201.477,466.471c0-0.41,0.337-0.747,0.732-0.747c0.41,0,0.747,0.337,0.747,0.747
				c0,0.41-0.337,0.732-0.747,0.732C201.814,467.203,201.477,466.881,201.477,466.471z M201.667,475.289v-7.075h1.099v7.075H201.667
				z"/>
			<path style="fill:#1D262D;" d="M204.582,477.105l0.556-0.82c0.586,0.703,1.289,0.967,2.3,0.967c1.172,0,2.27-0.571,2.27-2.124
				v-1.011c-0.513,0.718-1.377,1.26-2.373,1.26c-1.845,0-3.149-1.377-3.149-3.662c0-2.27,1.289-3.677,3.149-3.677
				c0.952,0,1.802,0.469,2.373,1.245v-1.069h1.098v6.87c0,2.344-1.641,3.076-3.369,3.076
				C206.237,478.16,205.417,477.926,204.582,477.105z M209.709,473.253v-3.091c-0.381-0.615-1.23-1.143-2.109-1.143
				c-1.421,0-2.27,1.128-2.27,2.695c0,1.553,0.849,2.695,2.27,2.695C208.478,474.41,209.328,473.868,209.709,473.253z"/>
			<path style="fill:#1D262D;" d="M217.413,475.289v-4.629c0-1.245-0.63-1.641-1.582-1.641c-0.865,0-1.685,0.527-2.095,1.099v5.17
				h-1.099v-7.075h1.099v1.025c0.498-0.586,1.464-1.201,2.519-1.201c1.48,0,2.256,0.747,2.256,2.285v4.966H217.413z"/>
			<path style="fill:#1D262D;" d="M219.932,471.744c0-2.051,1.465-3.706,3.486-3.706c2.139,0,3.398,1.67,3.398,3.794v0.279h-5.727
				c0.088,1.333,1.025,2.446,2.549,2.446c0.806,0,1.626-0.322,2.183-0.894l0.527,0.718c-0.703,0.703-1.655,1.084-2.812,1.084
				C221.441,475.465,219.932,473.956,219.932,471.744z M223.404,468.947c-1.509,0-2.256,1.274-2.314,2.358h4.643
				C225.718,470.25,225.015,468.947,223.404,468.947z"/>
			<path style="fill:#1D262D;" d="M233.35,475.289v-1.055c-0.527,0.718-1.392,1.23-2.388,1.23c-1.846,0-3.149-1.406-3.149-3.706
				c0-2.256,1.289-3.721,3.149-3.721c0.952,0,1.817,0.469,2.388,1.245v-3.765h1.098v9.77H233.35z M233.35,473.37v-3.208
				c-0.396-0.615-1.245-1.143-2.124-1.143c-1.421,0-2.27,1.172-2.27,2.739c0,1.567,0.849,2.724,2.27,2.724
				C232.105,474.483,232.954,473.986,233.35,473.37z"/>
			<path style="fill:#1D262D;" d="M239.692,475.289v-9.77h1.098v3.765c0.572-0.776,1.421-1.245,2.388-1.245
				c1.845,0,3.149,1.465,3.149,3.721c0,2.299-1.304,3.706-3.149,3.706c-0.996,0-1.86-0.513-2.388-1.23v1.055H239.692z
				 M242.9,474.483c1.436,0,2.285-1.157,2.285-2.724c0-1.568-0.85-2.739-2.285-2.739c-0.864,0-1.728,0.527-2.109,1.143v3.208
				C241.171,473.986,242.036,474.483,242.9,474.483z"/>
			<path style="fill:#1D262D;" d="M247.528,477.061c0.161,0.073,0.425,0.117,0.601,0.117c0.483,0,0.805-0.161,1.055-0.747
				l0.469-1.069l-2.959-7.148h1.187l2.358,5.8l2.344-5.8h1.201l-3.545,8.51c-0.425,1.025-1.143,1.421-2.08,1.435
				c-0.234,0-0.601-0.044-0.805-0.103L247.528,477.061z"/>
		</g>
	</g>
</g>
</svg>
